{
 "id": 721015,
 "bug_id": 179942,
 "attachment_id": 0,
 "creation_time": "2013-06-25T02:30:01Z",
 "creator": "hideo@lastamericanempire.com",
 "text": "dvdstyler will use the wrong ffmpeg binary when transcoding if multimedia/ffmpeg is also installed.\nThe port is configured to use multimedia/ffmpeg1 but \"ffmpeg\" is hardcoded in\nsrc/Config.h.   The new command line sytax generates an error like below.  \n\n* * * The diff adds a new file (files/patch-Configure.h) that changes the binary to \"ffmpeg1\".  * * *\n\n\nDVDStyler v2.4.3\nFreeBSD 9.1-STABLE amd64\nFFmpeg: libavformat 54.29.104, libavcodec 54.59.100, libavutil 51.73.101\nPrepare\nCleaning temporary directory\nSearch for transcoded files in cache\nGenerating menus\nGenerating menu 1 of 1\nCreate menu MPEG\nMultiplexing subpictures into mpeg\nExecuting command: spumux -P -s 0 \"/tmp/dvd-tmp/menu1-0.mpg_spumux.xml\"\nDVDAuthor::spumux, version 0.7.1.\nBuild options: gnugetopt iconv freetype fribidi fontconfig\nSend bug reports to \u003cdvdauthor-users@lists.sourceforge.net\u003e\nINFO: no default video format, must explicitly specify NTSC or PAL\nINFO: PNG had 1 colors\nINFO: PNG had 3 colors\nINFO: PNG had 3 colors\nINFO: Pickbuttongroups, success with 1 groups, useimg=1\nINFO: 0 bytes of data written\nINFO: 4096 bytes of data written\nINFO: 8192 bytes of data written\nINFO: 12288 bytes of data written\nINFO: 16384 bytes of data written\nINFO: Found EOF in .sub file.\nINFO: Max_sub_size=44\nINFO: 22528 bytes of data written\nINFO: 1 subtitles added, 0 subtitles skipped, stream: 32, offset: 1.00\nExecuting command: spumux -P -s 1 \"/tmp/dvd-tmp/menu1-0.mpg_spumux.xml\"\nDVDAuthor::spumux, version 0.7.1.\nBuild options: gnugetopt iconv freetype fribidi fontconfig\nSend bug reports to \u003cdvdauthor-users@lists.sourceforge.net\u003e\nINFO: no default video format, must explicitly specify NTSC or PAL\nINFO: PNG had 1 colors\nINFO: PNG had 4 colors\nINFO: PNG had 4 colors\nINFO: Pickbuttongroups, success with 1 groups, useimg=1\nINFO: 0 bytes of data written\nINFO: 6144 bytes of data written\nINFO: 10240 bytes of data written\nINFO: 16384 bytes of data written\nINFO: Found EOF in .sub file.\nINFO: Max_sub_size=40\nINFO: 22528 bytes of data written\nINFO: found existing substream ID 0x20 (DVD-Video 0)\nINFO: 24576 bytes of data written\nINFO: 1 subtitles added, 0 subtitles skipped, stream: 33, offset: 1.00\nTranscode/remultiplex\nAdd file to cache: /tmp/dvd-ache/entry001.vob\nTranscode video file: test.avi\nNeed encode: true, use mplex: false\nExecuting command: ffmpeg -i \"test.avi\" -f dvd -c:v:0 mpeg2video -s 720x480 -r 24000/1001 -g 18 -b:v:0 3941000 -maxrate:v:0 3941000 -minrate:v:0 3941000 -bufsize:v:0 1835008 -packetsize 2048 -muxrate 10080000 -vf scale=720:304,pad=720:480:0:88 -b:a 192000 -ar 48000 -c:a:0 ac3 -map 0:v -map 0:a \"/tmp/dvd-cache/entry001.vob\"\nffmpeg version 0.7.15, Copyright (c) 2000-2013 the FFmpeg developers\n  built on Jun 18 2013 08:00:54 with gcc 4.2.1 20070831 patched [FreeBSD]\n  configuration: --enable-x11grab --prefix=/usr/local --mandir=/usr/local/man --enable-shared --enable-gpl --enable-postproc --enable-avfilter --enable-pthreads --enable-memalign-hack --enable-runtime-cpudetect --cc=/usr/local/libexec/ccache/world/cc --extra-cflags='-I/usr/local/include/vorbis -I/usr/local/include' --extra-ldflags='-L/usr/local/lib ' --extra-libs=-pthread --disable-debug --enable-libaacplus --disable-indev=alsa --disable-outdev=alsa --disable-libopencore-amrnb --disable-libopencore-amrwb --disable-libcelt --disable-libdirac --enable-libfaac --disable-ffserver --enable-libfreetype --disable-frei0r --enable-libgsm --enable-libmp3lame --disable-libopencv --enable-libopenjpeg --disable-librtmp --enable-libschroedinger --disable-ffplay --disable-libspeex --enable-libtheora --disable-vaapi --enable-vdpau --disable-libvo-aacenc --disable-libvo-amrwbenc --enable-libvorbis --enable-libvpx --enable-libx264 --enable-libxvid --enable-nonfree\n  libavutil    50. 43. 0 / 50. 43. 0\n  libavcodec   52.123. 0 / 52.123. 0\n  libavformat  52.111. 0 / 52.111. 0\n  libavdevice  52.  5. 0 / 52.  5. 0\n  libavfilter   1. 80. 0 /  1. 80. 0\n  libswscale    0. 14. 1 /  0. 14. 1\n  libpostproc  51.  2. 0 / 51.  2. 0\nSeems stream 0 codec frame rate differs from container frame rate: 24000.00 (24000/1) -\u003e 23.98 (24000/1001)\nInput #0, avi, from 'test.avi':\n  Metadata:\n    encoder         : Lavf52.111.0\n  Duration: 02:23:03.24, start: 0.000000, bitrate: 1086 kb/s\nDuration: 02:23:03.24, start: 0.000000, bitrate: 1086 kb/s\n    Stream #0.0: Video: mpeg4, yuv420p, 640x272 [PAR 1:1 DAR 40:17], 23.98 fps, 23.98 tbr, 23.98 tbn, 24k tbc\n    Stream #0.1: Audio: mp3, 48000 Hz, stereo, s16, 128 kb/s\nUnrecognized option 'c:v:0'\nError transcoding of test.avi\n\nHow-To-Repeat: Make sure multimedia/ffmpeg is installed in addition to multimedia/ffmpeg1 (pulled in by port).\nCreate an ISO or burn a DVD where the source files need to be transcoded with ffmpeg, e.g. from an .avi file."
}